<svg xmlns="http://www.w3.org/2000/svg" width="489.974" height="489.966" viewBox="0 0 489.974 489.966">
  <g id="edit" transform="translate(-11.052 -10.992)">
    <g id="Group_1643" data-name="Group 1643">
      <path id="Path_1925" data-name="Path 1925" d="M455.1,137.9l-32.4,32.4-81-81.1,32.4-32.4a17.881,17.881,0,0,1,24.7,0l56.3,56.4A17.5,17.5,0,0,1,455.1,137.9Zm-270.7,271-81-81.1L312.8,118.1l81,81.1L184.4,408.9Zm-99.7-42,60.6,60.7L60.9,451.4l23.8-84.5ZM484,84.3,427.7,27.9c-11-11-50.7-31.8-82.4,0L60,313.4a19.639,19.639,0,0,0-5.2,8.9l-43,153.1a20.808,20.808,0,0,0,5.2,20c5.2,5.3,15.6,6.2,20,5.2l153-43.1a19.639,19.639,0,0,0,8.9-5.2L484,166.8a58.485,58.485,0,0,0,0-82.5Z" fill="#fff"/>
    </g>
  </g>
</svg>
