<svg xmlns="http://www.w3.org/2000/svg" width="436.406" height="457.321" viewBox="0 0 436.406 457.321">
	<g id="XMLID_467_" transform="translate(-10.457)">
		<path id="XMLID_922_" d="M228.66,112.692A115.968,115.968,0,1,0,344.628,228.659,116.1,116.1,0,0,0,228.66,112.692Z" fill="#fff" />
		<path id="XMLID_1397_" d="M401.429,228.66,443.9,171.59a15,15,0,0,0-7.562-23.273l-67.9-21.209.811-71.132a15,15,0,0,0-19.8-14.384l-67.4,22.753L240.9,6.322a15,15,0,0,0-24.47,0L175.271,64.346l-67.4-22.753a15,15,0,0,0-19.8,14.384l.812,71.132-67.9,21.209a15,15,0,0,0-7.561,23.273l42.467,57.07-42.467,57.07A15,15,0,0,0,20.985,309l67.9,21.208-.812,71.132a15,15,0,0,0,19.8,14.384l67.4-22.753L216.425,451a15,15,0,0,0,24.47,0l41.154-58.024,67.4,22.753a15,15,0,0,0,19.8-14.383l-.811-71.133L436.335,309a15,15,0,0,0,7.562-23.273ZM228.66,374.627c-80.487,0-145.968-65.481-145.968-145.968S148.173,82.692,228.66,82.692s145.968,65.48,145.968,145.967S309.147,374.627,228.66,374.627Z" fill="#fff" />
	</g>
</svg>
  