<svg xmlns="http://www.w3.org/2000/svg" width="403.366" height="458.5" viewBox="0 0 403.366 458.5">
	<g id="trash" transform="translate(-27.567)">
	  <g id="Group_1644" data-name="Group 1644">
		<g id="Group_1643" data-name="Group 1643">
		  <path id="Path_1925" data-name="Path 1925" d="M382.078,57.069H292.3a63.362,63.362,0,0,0-126.1,0H76.421A48.854,48.854,0,0,0,74,154.716V399.5a59.066,59.066,0,0,0,59,59H325.5a59.066,59.066,0,0,0,59-59V154.717a48.854,48.854,0,0,0-2.426-97.648ZM229.249,30a33.415,33.415,0,0,1,32.76,27.069h-65.52A33.415,33.415,0,0,1,229.249,30ZM354.5,399.5a29.032,29.032,0,0,1-29,29H132.995a29.032,29.032,0,0,1-29-29V154.778H354.5Zm27.575-274.723H76.421a18.854,18.854,0,1,1,0-37.708H382.078a18.854,18.854,0,1,1,0,37.708Z" fill="#fff"/>
		  <path id="Path_1926" data-name="Path 1926" d="M229.249,392.323a15,15,0,0,0,15-15V203.618a15,15,0,0,0-30,0V377.323A15,15,0,0,0,229.249,392.323Z" fill="#fff"/>
		  <path id="Path_1927" data-name="Path 1927" d="M306.671,392.323a15,15,0,0,0,15-15V203.618a15,15,0,0,0-30,0V377.323A15,15,0,0,0,306.671,392.323Z" fill="#fff"/>
		  <path id="Path_1928" data-name="Path 1928" d="M151.828,392.323a15,15,0,0,0,15-15V203.618a15,15,0,0,0-30,0V377.323A15,15,0,0,0,151.828,392.323Z" fill="#fff"/>
		</g>
	  </g>
	</g>
  </svg>
  